Simulation
nRows=36
nColumns=15
endheader
time  TH_x TH_y TH_z SC_y  SC_z  SC_x  AC_y  AC_z  AC_x  GH_y  GH_z  GH_yy  EL_x  PS_y
0.0  0.000000  0.000000  0.000000  -40.97484877243665  6.293857566463187  5.290427962726946  44.28999976589555  6.930109127124065  -0.020634430621896387  174.84109307884725  6.784150475839225  -149.60577871482835  22.670635185587308  120.000000
0.05745  0.000000  0.000000  0.000000  -38.85503686671721  5.756776960341686  3.059340053222456  43.36132059065026  7.177623260320894  0.13859532770576594  168.48692985449568  3.5226211708159396  -144.46269180833687  22.08282674146546  120.000000
0.1149  0.000000  0.000000  0.000000  -36.90174236777194  5.072281980606218  0.8239538348678654  42.51948343625058  7.232453801438729  0.3396587207496992  110.18242959220217  0.8975665782050184  -87.35738162058391  21.67645399091096  120.000000
0.17235  0.000000  0.000000  0.000000  -35.22615508446715  4.2999586269003895  -1.3164197613132202  41.80844851768211  7.1486336533121975  0.6031459056075434  21.62673971120553  2.9131604094024346  -0.0014577821417483458  21.531647201258895  120.000000
0.2298  0.000000  0.000000  0.000000  -33.88055413860088  3.5166994150555566  -3.2957308835345382  41.25754249714631  7.0123882398400115  0.9470093401968089  13.637871433920646  5.821741388910291  6.7761536422135205  21.657544180228726  120.000000
0.28725  0.000000  0.000000  0.000000  -32.87292649965475  2.8020360075834763  -5.0854215055908  40.85982865404491  6.926401847185329  1.391692840374729  10.97072965049095  8.765681617339862  8.195854879811574  21.990359109316557  120.000000
0.3447  0.000000  0.000000  0.000000  -32.19141749042135  2.2326101566638688  -6.674087969504824  40.583955799101396  6.972419114845302  1.9458830181662001  9.2407979311921  11.76937796534878  8.60870494841528  22.429850959840753  120.000000
0.40215  0.000000  0.000000  0.000000  -31.826474440027518  1.8647756771272985  -8.040016524698895  40.39269346250327  7.1814122418907544  2.5861278567890396  7.706065987417068  14.887689587500574  8.72366545856822  22.86490835197572  120.000000
0.4596  0.000000  0.000000  0.000000  -31.769998849863512  1.734348014515737  -9.14653727541766  40.255035804086944  7.530000504461191  3.265290084130553  6.242646695745715  18.167814099674818  8.647096498695348  23.202061513118583  120.000000
0.51705  0.000000  0.000000  0.000000  -32.010310594120725  1.8566198051588438  -9.948311489284405  40.15453694363251  7.9581297623326055  3.933269996375573  4.879412098934856  21.629511342108394  8.356141900837265  23.37954714122426  120.000000
0.5745  0.000000  0.000000  0.000000  -32.527236269396326  2.234088341366232  -10.40520710439119  40.09515404625329  8.393040282525554  4.557030546162605  3.6823071317504903  25.252112227321685  7.815884219143291  23.375820804197417  120.000000
0.63195  0.000000  0.000000  0.000000  -33.29898553101488  2.854250214380937  -10.517614927344466  40.0973412505229  8.78470000473683  5.146426984866707  2.721954869248539  28.98164995360962  7.000562858171001  23.200998816268683  120.000000
0.6894  0.000000  0.000000  0.000000  -34.307876520217654  3.6853993893202732  -10.338835400247593  40.19252179430579  9.117620810812625  5.751933568585724  2.0691270283338765  32.75217815807884  5.883314175498234  22.88426700054906  120.000000
0.74685  0.000000  0.000000  0.000000  -35.54246291451505  4.673993758292954  -9.930496494598575  40.41803932021205  9.39146756099328  6.420544324909216  1.7769810048016628  36.503741459518054  4.439844286334079  22.462330086964432  120.000000
0.8043  0.000000  0.000000  0.000000  -36.986109283138454  5.759372290227836  -9.336224688699929  40.80561011106524  9.61237348047991  7.172118357128265  1.8630435377961692  40.18331133996686  2.6596034300704803  21.973610620377027  120.000000
0.86175  0.000000  0.000000  0.000000  -38.608152776949225  6.882781073276529  -8.582349489624557  41.36641775706025  9.801328443569057  8.000048027311713  2.2963850164724238  43.742933101807466  0.5615354686636472  21.45445875947511  120.000000
0.9192  0.000000  0.000000  0.000000  -40.35651268110896  7.991960464881315  -7.682313725495812  42.08050044832999  9.994269418526557  8.872681858639048  2.9987834337470263  47.13319826239053  -1.7953352554834658  20.935256267256072  120.000000
0.97665  0.000000  0.000000  0.000000  -42.15873992408475  9.041913714658303  -6.642685439635256  42.893813688030484  10.233222649267342  9.741335528868955  3.8606689909120315  50.29979883591602  -4.310851486541633  20.436603216493094  120.000000
1.0341  0.000000  0.000000  0.000000  -43.92498803903789  10.00246119785529  -5.467793342990057  43.72824722983467  10.550337850805066  10.554864690862425  4.773431641259045  53.18656100424907  -6.857091312553348  19.968512419814573  120.000000
1.09155  0.000000  0.000000  0.000000  -45.56216192216735  10.868001303028306  -4.161284894573426  44.50264786361302  10.954131199416693  11.271839785713244  5.656534788249892  55.74843368194292  -9.297385020412202  19.53129248830253  120.000000
1.149  0.000000  0.000000  0.000000  -47.003350645687966  11.649048366749902  -2.730179247794037  45.14831722251607  11.426991336516142  11.86380511717399  6.459897232814484  57.9598980418055  -11.501622908384142  19.121240653994175  120.000000
1.20645  0.000000  0.000000  0.000000  -48.22288654173152  12.352758111850447  -1.1928037743643  45.62488096617844  11.933291352357134  12.317678256466618  7.1570699228868415  59.813336635023546  -13.367451026107279  18.734350110844787  120.000000
1.2639  0.000000  0.000000  0.000000  -49.229303947038574  12.97561106967018  0.4127574016023058  45.9325798269584  12.430803527250943  12.635426698421439  7.745535924225581  61.314773903745625  -14.845948889829486  18.370128864925018  120.000000
1.32135  0.000000  0.000000  0.000000  -50.04669566218854  13.502248770234512  2.0234767547081822  46.10299958681782  12.880504519473202  12.829835085303493  8.238661976555706  62.482682504598856  -15.95013327166262  18.03398157943891  120.000000
1.3788  0.000000  0.000000  0.000000  -50.695356872331466  13.91318247577759  3.550491711562745  46.181640630078014  13.251488844449508  12.915938718516626  8.654026466235566  63.344648845080236  -16.74384788378973  17.73442403508247  120.000000
1.43625  0.000000  0.000000  0.000000  -51.18137342655953  14.191672128778396  4.884109443146041  46.214362200813405  13.520842381549247  12.905452130917567  9.005216506951157  63.93592421315209  -17.317467045345527  17.480678897346213  120.000000
1.4937  0.000000  0.000000  0.000000  -51.492282979738  14.325982499905638  5.9026016347584065  46.237132133031835  13.672009488990886  12.806153340798375  9.2961036518463  64.29789878813098  -17.759130208423787  17.28030361462701  120.000000
1.55115  0.000000  0.000000  0.000000  -51.60267564148665  14.308201285505245  6.481999274188187  46.27545855985511  13.689772159862859  12.623025581985262  9.518502297557518  64.4843508480014  -18.129362296512255  17.138902394198134  120.000000
1.6086  0.000000  0.000000  0.000000  -51.4789851186842  14.125291290850953  6.5061745641974875  46.345612730379855  13.557619937618423  12.361598485089202  9.64810768410483  64.56811619654223  -18.443842232618522  17.05935948630053  120.000000
1.66605  0.000000  0.000000  0.000000  -51.101023216047444  13.765092125433643  5.907071549006029  46.439924673570566  13.279506815144735  12.046007461565752  9.667284258968737  64.5687685666688  -18.69743444488179  17.04160097301884  120.000000
1.7235  0.000000  0.000000  0.000000  -50.47745545063463  13.229782348455528  4.70291662963093  46.51172143610231  12.90914235898776  11.731368580109395  9.589546598349234  64.37837439163388  -18.900554365828494  17.08112974352387  120.000000
1.78095  0.000000  0.000000  0.000000  -49.62775263936754  12.524985639899382  2.9712275814548126  46.50034802575357  12.53578588139734  11.47620821465251  9.435612243585487  63.84671659071462  -19.065142351441555  17.162785364058042  120.000000
1.8384  0.000000  0.000000  0.000000  -48.56698165921842  11.654622266494114  0.8139763467951651  46.35485990034053  12.257835953714345  11.316630392249364  9.212002525179663  62.866765505215255  -19.192755087351724  17.261621009576707  120.000000
1.89585  0.000000  0.000000  0.000000  -47.31024081159389  10.629936598204466  -1.6496278559666875  46.0385346329713  12.168308119255526  11.263578678411058  8.919971877605594  61.37171631209255  -19.28891413458775  17.348379532328096  120.000000
1.9533  0.000000  0.000000  0.000000  -45.884903604765086  9.473622129545392  -4.295986041194382  45.533080734917306  12.335102050365977  11.306861959792222  8.565558702827634  59.33697332854302  -19.370348972407044  17.39921721836785  120.000000
2.01075  0.000000  0.000000  0.000000  -44.34683373388812  8.222171405654898  -7.008215414631302  44.840481078253994  12.78435227639942  11.424288062801912  8.165884214763816  56.78001674652118  -19.465469475402895  17.40046429473796  120.000000
